<svg xmlns="http://www.w3.org/2000/svg" width="24" height="24" viewBox="0 0 24 24" fill="none" stroke="currentColor" stroke-width="2" stroke-linecap="round" stroke-linejoin="round"><path d="M12 3l1.912 3.876 4.279.621-3.096 3.018.731 4.261L12 12.75l-3.826 2.026.731-4.261-3.096-3.018 4.279-.621L12 3z"></path><path d="M5 3l.912 1.876 2.079.321-1.596 1.518.431 2.261L5 7.75l-1.926 1.126.431-2.261L1.91 5.197l2.079-.321L5 3z"></path><path d="M19 16l.912 1.876 2.079.321-1.596 1.518.431 2.261L19 20.75l-1.926 1.126.431-2.261-1.595-1.636 2.079-.321L19 16z"></path></svg>
